<svg width="643" height="140" viewBox="0 0 643 140" fill="none" xmlns="http://www.w3.org/2000/svg">
<path d="M253.269 103.686H231.71C228.135 103.686 223.084 103.894 218.776 104.211C218.667 103.686 218.568 102.953 218.568 102.527C218.568 101.369 219.093 100.953 219.726 100.844C224.876 99.586 226.985 98.8438 226.985 96.3187V42.7831C226.985 40.0498 225.193 39.2081 219.726 38.2577C218.885 38.1491 218.568 37.3074 218.568 36.4657C218.568 36.0493 218.677 35.3072 218.776 34.7822C224.56 35.2076 227.293 35.3072 231.61 35.3072H253.169C276.837 35.3072 288.612 50.7659 288.612 69.4921C288.612 86.0007 277.253 103.677 253.269 103.677V103.686ZM246.019 39.6244H236.869V95.5765C236.869 98.4184 239.186 99.3597 248.227 99.3597C269.786 99.3597 277.57 88.6345 277.57 71.4923C277.57 50.0328 266.528 39.6244 246.019 39.6244Z" fill="#701567"/>
<path d="M341.098 103.052C339.414 104.211 336.889 104.944 334.156 104.944C327.947 104.944 325.322 100.844 324.689 96.7441C321.213 102.953 316.38 104.944 310.072 104.944C304.605 104.944 296.296 103.469 296.296 94.2189C296.296 83.8104 307.338 80.5431 315.755 78.6515C318.072 78.2351 320.281 77.7012 321.747 77.1762C323.639 76.6513 323.956 75.9181 323.956 73.1757C323.956 66.6592 321.747 61.817 315.33 61.817C310.488 61.817 309.121 63.9168 307.438 69.3925C307.012 70.8678 305.754 71.3927 302.288 72.334C301.446 72.6508 299.971 72.9676 299.129 72.9676C298.287 72.9676 298.079 72.334 298.079 70.7592C298.079 64.4508 308.913 58.0338 316.697 58.0338C326.481 58.0338 332.68 60.8757 332.68 72.859V90.9515C332.68 95.8933 333.106 97.5767 333.73 98.8438C334.681 100.735 335.939 101.26 337.197 101.26C338.672 101.26 339.197 100.844 339.831 100.844C340.672 100.844 340.989 101.478 341.089 103.052H341.098ZM323.956 80.335L320.589 80.8599C313.33 82.1179 306.288 84.6431 306.288 92.4268C306.288 97.7939 309.447 100.627 313.438 100.627C318.905 100.627 323.956 95.4769 323.956 88.535V80.335Z" fill="#701567"/>
<path d="M374.233 70.9673C373.074 70.9673 372.658 70.3338 372.549 69.8089C371.599 64.125 367.816 61.817 362.449 61.817C358.448 61.817 354.665 64.3422 354.665 68.3336C354.665 72.0173 357.081 74.117 364.657 76.5336C372.857 79.0588 378.65 82.2084 378.65 91.0511C378.65 98.3098 373.5 104.935 362.032 104.935C357.615 104.935 351.407 103.985 346.99 101.46C346.673 97.8844 346.465 93.7845 346.465 89.6754H347.515C348.881 89.6754 350.04 90.0917 350.149 91.2502C350.673 97.1423 354.882 101.034 361.933 101.034C367.608 101.034 370.875 98.1922 370.875 93.7754C370.875 89.3586 367.408 87.1502 360.883 85.15C352.574 82.6248 347.632 79.1583 347.632 71.266C347.632 64.0073 353.416 58.0156 362.358 58.0156C367.933 58.0156 373.4 59.7987 376.133 61.4821C376.45 63.5819 376.658 68.3155 376.658 71.0488L374.242 70.9402L374.233 70.9673Z" fill="#701567"/>
<path d="M402.426 68.4422C403.376 67.8086 410.526 58.0338 420.202 58.0338C427.035 58.0338 432.927 61.7174 432.927 72.0173V97.6853C432.927 99.7851 435.977 100.735 439.136 101.26C439.661 101.369 439.978 101.677 439.978 102.518C439.978 102.935 439.869 103.677 439.77 104.202C436.195 103.885 432.936 103.677 428.728 103.677C425.044 103.677 421.261 103.885 417.686 104.202C417.577 103.677 417.477 102.944 417.477 102.518C417.477 101.677 417.894 101.36 418.428 101.26C420.844 100.844 424.211 99.8937 424.211 97.6853V77.0676C424.211 70.1256 422.736 64.9757 416.319 64.9757C409.268 64.9757 402.435 69.9174 402.435 78.5429V97.6853C402.435 99.7851 405.277 100.735 408.219 101.26C408.743 101.369 409.169 101.677 409.169 102.518C409.169 102.935 409.06 103.677 408.961 104.202C405.277 103.885 401.91 103.677 398.018 103.677C394.126 103.677 390.343 103.885 386.868 104.202C386.759 103.677 386.659 102.944 386.659 102.518C386.659 101.677 386.976 101.36 387.501 101.26C390.66 100.735 393.71 99.7851 393.71 97.5767V40.9911C393.71 36.4657 392.452 35.4158 387.402 34.8908C386.56 34.7822 386.035 34.2573 386.035 33.4156C386.035 32.9992 386.144 32.3657 386.243 31.9403C388.026 31.9403 391.818 31.7321 394.443 31.4153C397.602 30.999 400.335 30.0487 401.494 30.0487C402.752 30.0487 403.069 30.6822 403.069 31.6235C403.069 33.9405 402.435 37.0902 402.435 41.2988V68.4331L402.426 68.4422Z" fill="#701567"/>
<path d="M465.954 74.0175V95.5765C465.954 98.8348 469.112 99.7851 475.213 100.627C476.054 100.735 476.471 101.469 476.471 102.419C476.471 102.835 476.362 103.677 476.262 104.211C472.262 103.894 466.904 103.686 460.903 103.686C457.22 103.686 452.278 103.894 448.178 104.211C448.069 103.686 447.97 102.953 447.97 102.527C447.97 101.478 448.395 100.953 449.02 100.844C454.595 99.7942 456.07 99.052 456.07 96.3187V42.7831C456.07 39.9412 454.179 38.9999 448.603 38.2577C447.97 38.1491 447.553 37.5246 447.553 36.3661C447.553 35.9498 447.662 35.2076 447.762 34.7913C451.653 35.1081 456.387 35.3162 460.279 35.3162H475.113C490.155 35.3162 497.831 43.2085 497.831 54.5673C497.831 63.5095 489.522 74.0265 475.113 74.0265H465.963L465.954 74.0175ZM471.529 69.7093C481.313 69.7093 486.888 65.7088 486.888 55.409C486.888 46.7836 483.204 39.6335 471.529 39.6335H465.954V69.7183H471.529V69.7093Z" fill="#701567"/>
<path d="M537.165 62.8759C537.165 64.5594 536.432 65.4011 529.807 68.4512C528.549 66.976 526.757 65.6093 524.657 65.6093C519.815 65.6093 516.665 71.5014 516.665 78.018V96.1105C516.665 99.1606 520.032 100.419 526.024 101.26C526.549 101.369 527.074 101.677 527.074 102.518C527.074 103.043 526.965 103.677 526.866 104.202C523.707 103.994 517.398 103.677 512.773 103.677C508.99 103.677 504.673 103.885 501.098 104.202C500.989 103.677 500.89 103.043 500.89 102.518C500.89 101.677 501.306 101.36 501.84 101.26C505.098 100.735 507.94 99.6856 507.94 97.5767V70.8587C507.94 64.9667 506.89 63.3918 501.84 62.8669C500.998 62.7582 500.473 62.342 500.473 61.5002C500.473 61.0839 500.582 60.4503 500.682 60.0249C502.465 60.0249 506.465 59.8168 508.574 59.5C511.624 58.975 514.149 58.1333 515.199 58.1333C516.358 58.1333 516.674 58.7669 516.674 59.7081V66.7587C521.2 61.9166 525.508 58.1333 531.192 58.1333C535.192 58.1333 537.183 60.4503 537.183 62.8669L537.165 62.8759Z" fill="#701567"/>
<path d="M561.883 58.0338C575.559 58.0338 585.334 67.6004 585.334 81.4844C585.334 94.6352 575.025 104.935 561.883 104.935C548.741 104.935 538.432 95.3593 538.432 81.4844C538.432 68.4422 548.741 58.0338 561.883 58.0338ZM562.824 101.052C570.816 101.052 575.441 94.7438 575.441 86.0098C575.441 75.6013 571.549 61.9256 560.716 61.9256C553.348 61.9256 548.307 66.8674 548.307 78.018C548.307 88.4264 552.516 101.052 562.824 101.052Z" fill="#701567"/>
<path d="M598.901 68.5508C598.901 64.5503 598.168 63.1836 593.326 62.7673C592.484 62.6587 591.959 62.2424 591.959 61.4006C591.959 60.9752 592.068 60.3507 592.167 59.9253C593.95 59.9253 597.742 59.7172 599.842 59.2918C602.892 58.8755 605.517 58.0338 606.676 58.0338C607.725 58.0338 608.042 58.6673 608.042 59.6086C608.042 61.292 607.725 63.1837 607.725 67.7091C611.934 62.2424 616.876 58.0338 624.551 58.0338C634.018 58.0338 642.852 66.1342 642.852 80.5431C642.852 96.1105 629.701 104.944 620.976 104.944C616.45 104.944 612.35 104.211 607.725 102.102V121.136C607.725 124.711 610.776 125.661 618.034 126.394C618.668 126.503 619.193 126.919 619.193 127.761C619.193 128.286 619.084 128.92 618.985 129.445C615.826 129.236 609.309 128.92 604.467 128.92C600.892 128.92 596.475 129.128 592.9 129.445C592.792 128.92 592.692 128.187 592.692 127.761C592.692 126.919 593.108 126.603 593.642 126.503C596.693 125.87 598.901 125.028 598.901 122.819V68.5508ZM607.744 95.1602C611.219 98.8439 615.319 101.152 620.677 101.152C628.778 101.152 632.986 93.5763 632.986 83.1679C632.986 72.7594 627.936 63.2923 619.736 63.2923C614.161 63.2923 607.744 70.2342 607.744 76.6513V95.1602Z" fill="#701567"/>
<path d="M1.90972 18.002C10.9605 19.5678 13.9201 20.9617 13.9201 25.4871V35.1081H30.2297V13.1327H21.5771C14.4451 13.1327 9.91969 12.9607 0.343935 12.2638C0.17197 13.1327 0 14.3546 0 15.0515C0 16.4453 0.524947 17.8391 1.90972 18.0111V18.002Z" fill="#701567"/>
<path d="M57.2463 13.1237H43.9417V20.2557H45.4079C79.3394 20.2557 97.6129 37.4794 97.6129 72.9857C97.6129 101.351 84.7336 119.1 49.0644 119.1C34.0944 119.1 30.2749 117.534 30.2749 112.836V48.82H13.9201V114.058C13.9201 118.231 10.4356 119.453 1.90972 121.543C0.868878 121.715 0 122.412 0 124.331C0 125.028 0.17197 126.241 0.343935 127.119C7.47597 126.594 15.8299 126.25 21.7491 126.25H57.4183C97.097 126.25 115.887 97.0156 115.887 69.6912C115.887 38.7193 96.4001 13.1327 57.2463 13.1327V13.1237Z" fill="#701567"/>
<path d="M163.765 0H160.353V139.373H163.765V0Z" fill="#701567"/>
</svg>
